<svg width="143" height="144" viewBox="0 0 143 144" fill="none" xmlns="http://www.w3.org/2000/svg">
<rect x="105.225" y="31.4031" width="15" height="68" rx="7.5" transform="rotate(85.753 105.225 31.4031)" fill="white"/>
<rect x="105.225" y="31.4031" width="15" height="68" rx="7.5" transform="rotate(85.753 105.225 31.4031)" fill="white"/>
<rect x="105.225" y="31.4031" width="15" height="68" rx="7.5" transform="rotate(85.753 105.225 31.4031)" fill="#4A4A4A"/>
<rect x="111.625" y="99.4453" width="15" height="68" rx="7.5" transform="rotate(174.903 111.625 99.4453)" fill="#4A4A4A"/>
<rect x="111.625" y="99.4453" width="15" height="68" rx="7.5" transform="rotate(174.903 111.625 99.4453)" fill="#4A4A4A"/>
<rect x="111.625" y="99.4453" width="15" height="68" rx="7.5" transform="rotate(174.903 111.625 99.4453)" fill="#4A4A4A"/>
<rect x="42.7832" y="116.233" width="15" height="68" rx="7.5" transform="rotate(-139.353 42.7832 116.233)" fill="#4A4A4A"/>
<rect x="42.7832" y="116.233" width="15" height="68" rx="7.5" transform="rotate(-139.353 42.7832 116.233)" fill="#4A4A4A"/>
<rect x="42.7832" y="116.233" width="15" height="68" rx="7.5" transform="rotate(-139.353 42.7832 116.233)" fill="#4A4A4A"/>
</svg>
