<svg width="517" height="215" viewBox="0 0 517 215" fill="none" xmlns="http://www.w3.org/2000/svg">
<rect x="16.3303" y="-79.8045" width="672.888" height="42.7123" transform="rotate(22.1945 16.3303 -79.8045)" fill="#D2D0FE" stroke="black" stroke-width="0.3"/>
<path d="M432.75 115.95C432.833 115.747 432.875 115.553 432.877 115.369C432.883 115.187 432.836 114.999 432.736 114.805C432.636 114.611 432.47 114.396 432.24 114.159C432.016 113.92 431.716 113.647 431.341 113.34C430.93 113.003 430.562 112.665 430.236 112.326C429.917 111.985 429.658 111.636 429.461 111.281C429.265 110.921 429.149 110.555 429.112 110.181C429.076 109.802 429.142 109.41 429.308 109.003C429.473 108.601 429.706 108.269 430.008 108.008C430.315 107.748 430.673 107.562 431.083 107.45C431.499 107.335 431.949 107.3 432.432 107.345C432.917 107.385 433.419 107.511 433.939 107.724C434.671 108.023 435.246 108.417 435.664 108.904C436.086 109.394 436.346 109.925 436.444 110.498C436.547 111.072 436.485 111.635 436.26 112.187L434.572 111.496C434.705 111.171 434.752 110.855 434.714 110.549C434.682 110.241 434.555 109.957 434.334 109.698C434.118 109.44 433.797 109.225 433.372 109.051C432.97 108.887 432.61 108.811 432.294 108.824C431.977 108.837 431.711 108.92 431.495 109.075C431.279 109.229 431.117 109.437 431.01 109.699C430.934 109.884 430.908 110.072 430.931 110.26C430.956 110.445 431.029 110.638 431.152 110.841C431.277 111.04 431.449 111.25 431.669 111.472C431.89 111.695 432.16 111.931 432.479 112.183C432.959 112.57 433.362 112.945 433.687 113.311C434.014 113.671 434.263 114.032 434.432 114.391C434.602 114.75 434.69 115.116 434.696 115.488C434.704 115.855 434.626 116.238 434.464 116.635C434.294 117.051 434.057 117.392 433.753 117.658C433.45 117.92 433.095 118.104 432.687 118.212C432.286 118.316 431.842 118.343 431.357 118.292C430.877 118.239 430.373 118.104 429.845 117.888C429.37 117.693 428.928 117.439 428.519 117.124C428.114 116.81 427.777 116.448 427.507 116.037C427.239 115.622 427.074 115.174 427.012 114.695C426.951 114.211 427.028 113.707 427.243 113.183L428.944 113.879C428.813 114.2 428.755 114.496 428.771 114.766C428.792 115.038 428.872 115.287 429.012 115.513C429.153 115.735 429.341 115.933 429.576 116.108C429.814 116.285 430.085 116.435 430.388 116.559C430.786 116.722 431.141 116.801 431.454 116.797C431.771 116.795 432.039 116.72 432.258 116.572C432.477 116.424 432.641 116.217 432.75 115.95ZM440.178 117.659L437.609 116.608L438.16 115.259L440.73 116.31C441.177 116.493 441.568 116.569 441.903 116.537C442.238 116.505 442.52 116.388 442.75 116.187C442.987 115.983 443.172 115.716 443.307 115.386C443.435 115.074 443.489 114.756 443.469 114.431C443.455 114.104 443.344 113.8 443.137 113.52C442.93 113.24 442.602 113.009 442.155 112.826L440.108 111.988L436.625 120.503L434.923 119.807L438.961 109.936L442.71 111.47C443.473 111.782 444.066 112.183 444.489 112.672C444.917 113.159 445.175 113.697 445.261 114.286C445.349 114.871 445.269 115.466 445.021 116.071C444.761 116.709 444.397 117.198 443.93 117.54C443.463 117.882 442.911 118.065 442.273 118.089C441.64 118.115 440.942 117.972 440.178 117.659ZM447.828 113.563L451.319 114.992C452.069 115.298 452.662 115.673 453.099 116.115C453.535 116.558 453.803 117.057 453.902 117.615C454.007 118.17 453.928 118.77 453.663 119.417C453.462 119.909 453.194 120.306 452.86 120.607C452.525 120.908 452.141 121.12 451.705 121.243C451.272 121.361 450.798 121.397 450.285 121.35L449.667 121.39L446.528 120.106L447.066 118.752L449.419 119.714C449.826 119.88 450.194 119.947 450.524 119.913C450.855 119.879 451.138 119.766 451.376 119.573C451.619 119.377 451.806 119.121 451.935 118.805C452.076 118.461 452.13 118.135 452.098 117.827C452.072 117.515 451.949 117.236 451.729 116.987C451.511 116.734 451.189 116.521 450.764 116.347L448.975 115.615L445.492 124.13L443.79 123.434L447.828 113.563ZM449.424 125.738L448.919 120.356L450.704 121.079L451.276 126.393L451.24 126.481L449.424 125.738ZM458.389 117.884L454.352 127.754L452.65 127.058L456.688 117.188L458.389 117.884ZM468.334 121.952L464.297 131.822L462.595 131.126L461.061 122.245L458.169 129.315L456.467 128.619L460.504 118.749L462.206 119.445L463.748 128.345L466.646 121.261L468.334 121.952ZM475.966 130.708L474.424 134.477C474.208 134.605 473.906 134.718 473.517 134.818C473.134 134.915 472.667 134.942 472.114 134.901C471.561 134.859 470.921 134.69 470.193 134.392C469.574 134.139 469.049 133.803 468.619 133.384C468.191 132.961 467.872 132.469 467.664 131.909C467.459 131.351 467.375 130.739 467.41 130.073C467.447 129.402 467.619 128.691 467.926 127.941L468.206 127.256C468.511 126.511 468.875 125.884 469.299 125.377C469.729 124.867 470.204 124.481 470.723 124.219C471.241 123.956 471.792 123.822 472.374 123.818C472.963 123.811 473.573 123.936 474.206 124.195C475.015 124.526 475.628 124.935 476.046 125.423C476.47 125.908 476.73 126.446 476.825 127.039C476.92 127.632 476.882 128.249 476.709 128.891L475.041 128.209C475.127 127.843 475.147 127.492 475.1 127.156C475.057 126.822 474.922 126.519 474.696 126.247C474.476 125.973 474.138 125.742 473.681 125.555C473.288 125.395 472.912 125.328 472.553 125.355C472.193 125.382 471.855 125.499 471.538 125.707C471.225 125.917 470.934 126.21 470.665 126.585C470.395 126.96 470.151 127.414 469.933 127.947L469.648 128.645C469.426 129.188 469.285 129.692 469.226 130.159C469.172 130.627 469.194 131.05 469.293 131.428C469.396 131.808 469.575 132.137 469.831 132.416C470.088 132.69 470.415 132.908 470.813 133.071C471.202 133.23 471.533 133.329 471.808 133.367C472.084 133.401 472.313 133.402 472.494 133.371C472.682 133.337 472.835 133.294 472.951 133.241L473.752 131.282L471.698 130.442L472.217 129.174L475.966 130.708ZM486.136 139.236L485.603 140.537L478.987 137.831L479.444 136.712L484.091 134.522C484.606 134.268 485.025 134.039 485.347 133.833C485.668 133.627 485.917 133.425 486.093 133.228C486.275 133.028 486.411 132.817 486.501 132.596C486.629 132.284 486.682 131.986 486.661 131.703C486.646 131.418 486.555 131.162 486.389 130.936C486.225 130.705 485.985 130.525 485.668 130.395C485.302 130.246 484.963 130.199 484.649 130.256C484.336 130.312 484.059 130.455 483.818 130.683C483.578 130.907 483.386 131.197 483.24 131.554L481.606 130.886C481.841 130.312 482.186 129.842 482.643 129.474C483.101 129.102 483.636 128.878 484.247 128.801C484.861 128.72 485.518 128.822 486.218 129.109C486.878 129.379 487.393 129.719 487.764 130.129C488.134 130.539 488.356 130.996 488.429 131.501C488.507 132.007 488.432 132.539 488.204 133.095C488.079 133.402 487.904 133.687 487.681 133.949C487.458 134.211 487.191 134.455 486.882 134.682C486.58 134.907 486.242 135.119 485.869 135.321C485.499 135.517 485.102 135.708 484.678 135.893L481.58 137.372L486.136 139.236ZM495.668 137.928L495.008 139.541C494.692 140.314 494.345 140.943 493.968 141.427C493.597 141.908 493.2 142.26 492.776 142.482C492.353 142.705 491.91 142.814 491.448 142.809C490.99 142.807 490.517 142.705 490.029 142.506C489.64 142.347 489.299 142.149 489.005 141.913C488.716 141.679 488.481 141.401 488.301 141.079C488.122 140.758 488.005 140.391 487.952 139.979C487.906 139.564 487.927 139.101 488.015 138.588C488.108 138.077 488.281 137.512 488.534 136.893L489.194 135.28C489.512 134.503 489.857 133.879 490.229 133.408C490.602 132.933 491 132.587 491.421 132.369C491.845 132.146 492.284 132.039 492.74 132.046C493.201 132.055 493.675 132.159 494.163 132.359C494.557 132.52 494.898 132.717 495.187 132.952C495.483 133.183 495.719 133.457 495.896 133.772C496.078 134.089 496.193 134.452 496.241 134.863C496.296 135.27 496.277 135.729 496.184 136.24C496.093 136.746 495.921 137.309 495.668 137.928ZM493.28 139.104L494.134 137.016C494.295 136.622 494.414 136.268 494.49 135.951C494.569 135.629 494.606 135.346 494.6 135.102C494.601 134.854 494.563 134.638 494.486 134.453C494.41 134.264 494.301 134.106 494.158 133.979C494.016 133.847 493.842 133.739 493.634 133.654C493.381 133.55 493.134 133.507 492.895 133.526C492.657 133.539 492.427 133.624 492.205 133.781C491.982 133.938 491.764 134.176 491.549 134.494C491.341 134.81 491.136 135.214 490.934 135.707L490.08 137.795C489.918 138.192 489.797 138.552 489.718 138.873C489.64 139.195 489.601 139.482 489.603 139.736C489.606 139.985 489.643 140.206 489.712 140.398C489.787 140.587 489.896 140.748 490.037 140.879C490.183 141.013 490.358 141.121 490.561 141.204C490.819 141.31 491.067 141.353 491.307 141.335C491.546 141.317 491.778 141.227 492.002 141.066C492.229 140.9 492.448 140.654 492.66 140.33C492.872 140.005 493.078 139.596 493.28 139.104ZM501.917 145.691L501.385 146.993L494.768 144.286L495.226 143.168L499.873 140.977C500.388 140.724 500.806 140.494 501.128 140.288C501.45 140.082 501.698 139.88 501.874 139.683C502.056 139.483 502.192 139.273 502.283 139.051C502.41 138.739 502.464 138.442 502.442 138.159C502.427 137.873 502.337 137.617 502.171 137.391C502.007 137.16 501.766 136.98 501.45 136.851C501.084 136.701 500.744 136.655 500.431 136.711C500.118 136.768 499.84 136.91 499.599 137.138C499.36 137.362 499.167 137.653 499.021 138.01L497.388 137.342C497.622 136.768 497.968 136.297 498.424 135.93C498.882 135.558 499.417 135.333 500.029 135.257C500.642 135.175 501.299 135.278 502 135.564C502.66 135.834 503.175 136.174 503.545 136.584C503.916 136.994 504.137 137.452 504.211 137.956C504.288 138.463 504.213 138.994 503.986 139.55C503.86 139.857 503.686 140.142 503.462 140.404C503.239 140.666 502.973 140.911 502.664 141.138C502.361 141.362 502.023 141.575 501.651 141.776C501.28 141.973 500.883 142.164 500.459 142.349L497.362 143.828L501.917 145.691ZM510.898 146.777L510.365 148.079L503.247 145.167L503.595 144.162L510.581 139.233L511.889 139.768L509.48 141.615L505.427 144.539L510.898 146.777ZM512.262 139.92L508.225 149.791L506.591 149.122L510.628 139.252L512.262 139.92Z" fill="black"/>
<path d="M263.568 45.4692C263.651 45.2659 263.694 45.0722 263.695 44.8881C263.701 44.7059 263.654 44.5178 263.554 44.3239C263.454 44.13 263.289 43.9147 263.059 43.6781C262.835 43.4388 262.535 43.1658 262.159 42.8591C261.748 42.5222 261.38 42.1843 261.054 41.8454C260.735 41.5038 260.477 41.1554 260.279 40.8002C260.083 40.4405 259.967 40.0738 259.93 39.6999C259.895 39.3215 259.96 38.9289 260.127 38.5222C260.291 38.12 260.525 37.7881 260.827 37.5266C261.134 37.2669 261.492 37.0811 261.902 36.9692C262.318 36.8545 262.767 36.8195 263.25 36.864C263.735 36.9041 264.237 37.0304 264.757 37.243C265.489 37.5425 266.064 37.9359 266.482 38.4234C266.904 38.9127 267.165 39.4438 267.263 40.0167C267.365 40.5915 267.304 41.1545 267.078 41.7059L265.39 41.0154C265.523 40.69 265.571 40.3744 265.532 40.0685C265.5 39.76 265.374 39.4761 265.152 39.2169C264.936 38.9595 264.615 38.7439 264.19 38.5701C263.788 38.4056 263.429 38.3298 263.112 38.3428C262.796 38.3557 262.529 38.4393 262.313 38.5936C262.097 38.7479 261.936 38.9561 261.828 39.2182C261.753 39.4035 261.726 39.5906 261.749 39.7793C261.774 39.9636 261.848 40.1573 261.97 40.3605C262.095 40.5591 262.267 40.7694 262.488 40.9915C262.708 41.2136 262.978 41.4505 263.297 41.7023C263.777 42.0887 264.18 42.4645 264.506 42.8297C264.833 43.1905 265.081 43.5505 265.251 43.91C265.42 44.2695 265.508 44.6352 265.514 45.007C265.522 45.3743 265.445 45.7568 265.282 46.1545C265.112 46.5702 264.875 46.9111 264.571 47.1772C264.269 47.4387 263.914 47.6232 263.506 47.7306C263.104 47.8354 262.661 47.8623 262.175 47.8114C261.696 47.7578 261.192 47.6229 260.663 47.4066C260.188 47.2125 259.747 46.9579 259.337 46.6428C258.933 46.3295 258.595 45.9674 258.326 45.5563C258.058 45.1408 257.893 44.6934 257.83 44.2141C257.77 43.7303 257.846 43.2263 258.061 42.7021L259.762 43.3981C259.631 43.719 259.574 44.0146 259.59 44.2849C259.61 44.5571 259.69 44.8062 259.83 45.0321C259.972 45.2536 260.16 45.4518 260.394 45.6268C260.633 45.8037 260.904 45.954 261.206 46.0779C261.604 46.2406 261.959 46.3199 262.272 46.316C262.59 46.314 262.858 46.239 263.077 46.0911C263.295 45.9432 263.459 45.7359 263.568 45.4692ZM270.996 47.1782L268.427 46.1272L268.979 44.7782L271.548 45.8292C271.995 46.0122 272.387 46.0878 272.721 46.0559C273.056 46.0241 273.339 45.9075 273.569 45.7062C273.805 45.5022 273.991 45.2352 274.126 44.9053C274.253 44.5935 274.307 44.2752 274.287 43.9504C274.273 43.6229 274.163 43.3192 273.955 43.0393C273.748 42.7593 273.421 42.5278 272.973 42.3448L270.926 41.5073L267.443 50.0218L265.742 49.3257L269.779 39.4555L273.528 40.989C274.292 41.3014 274.885 41.7022 275.307 42.1915C275.736 42.6782 275.993 43.2161 276.079 43.8052C276.167 44.3898 276.087 44.9849 275.84 45.5905C275.579 46.2277 275.215 46.7173 274.748 47.0591C274.281 47.401 273.729 47.5839 273.091 47.608C272.458 47.6339 271.76 47.4906 270.996 47.1782ZM278.646 43.0825L282.137 44.5106C282.887 44.8175 283.481 45.192 283.917 45.6343C284.353 46.0766 284.621 46.5764 284.72 47.134C284.825 47.6888 284.746 48.2893 284.482 48.9356C284.28 49.4282 284.012 49.8251 283.678 50.1263C283.344 50.4274 282.959 50.6393 282.524 50.762C282.09 50.8801 281.617 50.9159 281.103 50.8693L280.485 50.9093L277.347 49.6255L277.885 48.2709L280.237 49.2331C280.644 49.3995 281.012 49.4658 281.343 49.4321C281.673 49.3984 281.957 49.285 282.194 49.0919C282.438 48.8961 282.624 48.6401 282.754 48.3237C282.894 47.9803 282.948 47.6542 282.916 47.3457C282.891 47.0345 282.768 46.7547 282.547 46.5064C282.329 46.2535 282.007 46.0402 281.583 45.8664L279.793 45.1343L276.31 53.6488L274.609 52.9528L278.646 43.0825ZM280.242 55.2571L279.737 49.8753L281.523 50.5978L282.095 55.9121L282.059 56.0002L280.242 55.2571ZM289.208 47.4028L285.17 57.273L283.469 56.577L287.506 46.7068L289.208 47.4028ZM299.153 51.4707L295.115 61.341L293.414 60.6449L291.879 51.7637L288.987 58.8342L287.285 58.1382L291.323 48.268L293.024 48.964L294.567 57.8643L297.465 50.7803L299.153 51.4707ZM306.784 60.2266L305.242 63.9958C305.026 64.1238 304.724 64.2375 304.335 64.3369C303.953 64.4337 303.485 64.4613 302.932 64.4198C302.379 64.3784 301.739 64.2088 301.012 63.9112C300.392 63.6579 299.868 63.322 299.438 62.9033C299.009 62.4802 298.691 61.9885 298.482 61.4283C298.278 60.87 298.193 60.2578 298.228 59.5916C298.265 58.9209 298.437 58.2104 298.744 57.4602L299.024 56.7755C299.329 56.0298 299.694 55.4034 300.117 54.8962C300.548 54.3863 301.022 54.0001 301.541 53.7376C302.06 53.475 302.61 53.3415 303.192 53.3369C303.781 53.3297 304.392 53.4555 305.024 53.7143C305.833 54.0452 306.447 54.4544 306.865 54.9419C307.289 55.4267 307.548 55.9655 307.644 56.5583C307.739 57.1511 307.7 57.7683 307.527 58.4099L305.86 57.7277C305.946 57.3621 305.965 57.0113 305.918 56.6755C305.875 56.3414 305.741 56.0385 305.514 55.7665C305.294 55.4918 304.956 55.2612 304.5 55.0745C304.106 54.9136 303.73 54.8468 303.371 54.8739C303.012 54.901 302.673 55.0185 302.356 55.2264C302.044 55.4362 301.753 55.7286 301.483 56.1037C301.214 56.4788 300.97 56.933 300.752 57.4663L300.466 58.1645C300.244 58.7069 300.104 59.2113 300.045 59.6778C299.99 60.1462 300.013 60.5693 300.111 60.9473C300.214 61.3271 300.394 61.6563 300.649 61.9348C300.906 62.2089 301.234 62.4272 301.631 62.5899C302.02 62.7489 302.351 62.8476 302.626 62.886C302.902 62.9199 303.131 62.9212 303.313 62.89C303.501 62.8561 303.653 62.8128 303.769 62.7602L304.571 60.8011L302.517 59.9609L303.035 58.6932L306.784 60.2266ZM316.954 68.7548L316.422 70.0563L309.805 67.3499L310.263 66.2314L314.91 64.041C315.425 63.7875 315.843 63.5578 316.165 63.3517C316.487 63.1457 316.735 62.944 316.911 62.7468C317.093 62.5469 317.229 62.3363 317.32 62.1148C317.447 61.803 317.5 61.5055 317.479 61.2225C317.464 60.9367 317.374 60.6808 317.208 60.4546C317.043 60.2239 316.803 60.0439 316.487 59.9145C316.121 59.7647 315.781 59.7181 315.468 59.7746C315.155 59.8311 314.877 59.9736 314.636 60.202C314.397 60.426 314.204 60.7164 314.058 61.0735L312.424 60.4052C312.659 59.8312 313.005 59.3606 313.461 58.9933C313.919 58.6214 314.454 58.3971 315.066 58.3203C315.679 58.2389 316.336 58.3415 317.037 58.628C317.697 58.8979 318.212 59.2379 318.582 59.6479C318.952 60.0579 319.174 60.5152 319.247 61.02C319.325 61.5265 319.25 62.0578 319.023 62.6136C318.897 62.9209 318.723 63.2057 318.499 63.4678C318.276 63.7299 318.01 63.9745 317.701 64.2015C317.398 64.4258 317.06 64.6385 316.688 64.8397C316.317 65.0363 315.92 65.2272 315.496 65.4125L312.398 66.8914L316.954 68.7548ZM326.486 67.447L325.826 69.0604C325.51 69.8333 325.163 70.4616 324.786 70.9456C324.415 71.4269 324.018 71.7789 323.595 72.0013C323.171 72.2238 322.728 72.3328 322.266 72.3283C321.808 72.3257 321.335 72.2245 320.847 72.0249C320.458 71.8659 320.117 71.6683 319.823 71.432C319.534 71.1977 319.3 70.9197 319.12 70.5983C318.94 70.2768 318.824 69.91 318.771 69.4979C318.724 69.0832 318.745 68.6195 318.833 68.107C318.926 67.5963 319.099 67.0314 319.352 66.4123L320.012 64.7989C320.33 64.0215 320.675 63.3977 321.047 62.9272C321.421 62.4523 321.818 62.1058 322.24 61.8879C322.663 61.6654 323.103 61.5577 323.559 61.5649C324.019 61.5739 324.494 61.6783 324.982 61.8779C325.375 62.0387 325.716 62.2363 326.005 62.4707C326.301 62.7024 326.537 62.9758 326.714 63.2909C326.896 63.6079 327.011 63.9715 327.06 64.3817C327.114 64.7893 327.095 65.2484 327.003 65.7591C326.912 66.2652 326.74 66.8279 326.486 67.447ZM324.098 68.6226L324.952 66.5347C325.113 66.1415 325.232 65.7866 325.309 65.4698C325.387 65.1485 325.424 64.8654 325.419 64.6206C325.42 64.373 325.382 64.1569 325.304 63.9723C325.229 63.7831 325.119 63.6249 324.976 63.4978C324.835 63.3661 324.66 63.2577 324.452 63.1727C324.199 63.0692 323.953 63.0265 323.713 63.0445C323.476 63.0581 323.245 63.1434 323.023 63.3003C322.801 63.4573 322.582 63.6949 322.367 64.0134C322.159 64.3291 321.954 64.7333 321.753 65.2259L320.899 67.3138C320.736 67.7115 320.615 68.071 320.537 68.3923C320.458 68.7136 320.419 69.0012 320.421 69.2551C320.425 69.5044 320.461 69.7251 320.53 69.9169C320.606 70.1061 320.714 70.2666 320.856 70.3982C321.001 70.5317 321.176 70.6401 321.379 70.7233C321.637 70.8287 321.886 70.8723 322.125 70.8542C322.365 70.8361 322.596 70.7463 322.821 70.5849C323.047 70.4189 323.266 70.1735 323.478 69.8487C323.69 69.524 323.897 69.1153 324.098 68.6226ZM332.735 75.2102L332.203 76.5118L325.587 73.8054L326.044 72.6868L330.691 70.4965C331.206 70.243 331.625 70.0132 331.946 69.8071C332.268 69.6011 332.517 69.3995 332.692 69.2023C332.874 69.0024 333.011 68.7917 333.101 68.5703C333.229 68.2584 333.282 67.961 333.261 67.6779C333.246 67.3922 333.155 67.1362 332.989 66.91C332.825 66.6794 332.585 66.4993 332.268 66.3699C331.902 66.2202 331.563 66.1736 331.249 66.2301C330.936 66.2866 330.659 66.429 330.418 66.6575C330.178 66.8814 329.986 67.1719 329.84 67.5289L328.206 66.8606C328.441 66.2867 328.786 65.816 329.242 65.4487C329.7 65.0769 330.235 64.8525 330.847 64.7757C331.461 64.6943 332.118 64.7969 332.818 65.0834C333.478 65.3533 333.993 65.6933 334.364 66.1033C334.734 66.5133 334.956 66.9707 335.029 67.4754C335.107 67.982 335.032 68.5132 334.804 69.0691C334.679 69.3764 334.504 69.6611 334.281 69.9232C334.058 70.1854 333.791 70.4299 333.482 70.6569C333.179 70.8813 332.842 71.094 332.469 71.2951C332.099 71.4917 331.702 71.6827 331.278 71.868L328.18 73.3468L332.735 75.2102ZM341.716 76.2961L341.184 77.5976L334.066 74.686L334.413 73.6809L341.399 68.7518L342.708 69.287L340.298 71.1343L336.245 74.0583L341.716 76.2961ZM343.08 69.4395L339.043 79.3097L337.409 78.6414L341.447 68.7712L343.08 69.4395Z" fill="black"/>
<path d="M382.5 96.5V93.2L380.175 95.5375L379.463 94.825L381.8 92.5H378.5V91.5H381.8L379.463 89.175L380.175 88.4625L382.5 90.8V87.5H383.5V90.8L385.825 88.4625L386.538 89.175L384.2 91.5H387.5V92.5H384.2L386.538 94.825L385.825 95.5375L383.5 93.2V96.5H382.5Z" fill="black"/>
</svg>
