<svg width="731" height="106" viewBox="0 0 731 106" fill="none" xmlns="http://www.w3.org/2000/svg">
<rect x="0.354295" y="0.17082" width="738.556" height="41.1916" transform="rotate(8.63467 0.354295 0.17082)" fill="#D2D0FE" stroke="black" stroke-width="0.3"/>
<path d="M33.5609 30.0699C33.5913 29.8523 33.5844 29.6541 33.5403 29.4754C33.501 29.2974 33.4089 29.1268 33.264 28.9636C33.1192 28.8005 32.9059 28.6327 32.6243 28.4603C32.3481 28.2838 31.9901 28.0934 31.5503 27.8891C31.0689 27.6642 30.6286 27.4278 30.2293 27.1799C29.8355 26.9278 29.499 26.6541 29.2197 26.3588C28.9411 26.0587 28.7376 25.7321 28.6094 25.3789C28.4818 25.021 28.4484 24.6244 28.509 24.1891C28.569 23.7587 28.7131 23.3795 28.9412 23.0514C29.1742 22.724 29.4754 22.4554 29.8448 22.2456C30.2198 22.0316 30.6467 21.8865 31.1257 21.8103C31.6053 21.7293 32.1232 21.7275 32.6794 21.8051C33.4628 21.9143 34.1172 22.1534 34.6426 22.5224C35.1728 22.8922 35.5562 23.3425 35.7928 23.8734C36.0342 24.405 36.1138 24.9658 36.0315 25.5557L34.2253 25.304C34.2738 24.9558 34.2417 24.6382 34.1288 24.3513C34.0215 24.0603 33.8287 23.8165 33.5504 23.62C33.277 23.4241 32.913 23.2945 32.4584 23.2311C32.028 23.1711 31.661 23.1865 31.3575 23.2773C31.054 23.3681 30.8166 23.5149 30.6453 23.7179C30.4741 23.9208 30.3689 24.1625 30.3298 24.443C30.3022 24.6412 30.3228 24.829 30.3918 25.0062C30.4614 25.1786 30.5808 25.3481 30.7498 25.5146C30.9196 25.6763 31.1387 25.8375 31.4071 25.9982C31.6756 26.1589 31.9955 26.3218 32.3669 26.4869C32.9278 26.7426 33.411 27.0072 33.8166 27.2806C34.2229 27.5493 34.5526 27.8368 34.8056 28.1432C35.0587 28.4496 35.2342 28.7822 35.3321 29.141C35.4307 29.4949 35.4503 29.8846 35.391 30.3102C35.329 30.7551 35.1835 31.144 34.9547 31.477C34.7266 31.8051 34.4281 32.0716 34.0594 32.2765C33.6961 32.4773 33.273 32.6131 32.7898 32.6838C32.3122 32.7503 31.7905 32.7441 31.2247 32.6653C30.7169 32.5945 30.2258 32.457 29.7514 32.2528C29.2818 32.0493 28.8655 31.7818 28.5026 31.4502C28.1403 31.1137 27.8696 30.721 27.6907 30.2721C27.5123 29.8183 27.4623 29.311 27.5405 28.75L29.3613 29.0038C29.3134 29.3471 29.3306 29.6478 29.413 29.9058C29.5002 30.1645 29.6394 30.386 29.8306 30.5704C30.0225 30.75 30.2536 30.8956 30.524 31.0072C30.7992 31.1196 31.0988 31.1983 31.4229 31.2435C31.8484 31.3028 32.2123 31.2919 32.5145 31.2108C32.8215 31.1303 33.0627 30.9914 33.2381 30.794C33.4136 30.5966 33.5211 30.3552 33.5609 30.0699ZM41.1807 29.8897L38.4314 29.5065L38.6327 28.0629L41.382 28.4461C41.8607 28.5129 42.2584 28.4894 42.575 28.3758C42.8916 28.2622 43.1364 28.0794 43.3096 27.8274C43.4883 27.5713 43.6022 27.2668 43.6514 26.9137C43.6979 26.5801 43.6713 26.2584 43.5715 25.9486C43.4772 25.6348 43.295 25.3678 43.025 25.1477C42.7549 24.9277 42.3805 24.7843 41.9017 24.7176L39.711 24.4122L38.4409 33.5233L36.6202 33.2695L38.0925 22.7075L42.104 23.2667C42.9213 23.3807 43.595 23.6225 44.1252 23.9922C44.6609 24.3577 45.0433 24.8153 45.2724 25.3649C45.5021 25.9096 45.5718 26.506 45.4815 27.1541C45.3864 27.8359 45.1549 28.4002 44.787 28.8469C44.4191 29.2935 43.9292 29.6073 43.3173 29.7882C42.7102 29.9698 41.998 30.0036 41.1807 29.8897ZM47.5808 24.0302L51.3166 24.551C52.1194 24.6629 52.7869 24.8792 53.319 25.1998C53.8511 25.5205 54.234 25.9387 54.4678 26.4544C54.7071 26.966 54.7785 27.5676 54.6821 28.2591C54.6087 28.7863 54.4472 29.237 54.1978 29.6115C53.9484 29.9859 53.628 30.2863 53.2365 30.5128C52.8458 30.7344 52.3957 30.8861 51.8864 30.9679L51.2976 31.1595L47.939 30.6913L48.1257 29.2457L50.6429 29.5966C51.0781 29.6573 51.4516 29.6305 51.7633 29.5161C52.0751 29.4018 52.322 29.2218 52.5042 28.976C52.6919 28.7261 52.8093 28.4319 52.8565 28.0934C52.9077 27.7258 52.8797 27.3966 52.7723 27.1055C52.6705 26.8103 52.4822 26.5696 52.2074 26.3834C51.9333 26.1924 51.569 26.0652 51.1144 26.0018L49.1993 25.7348L47.9293 34.8459L46.1085 34.5921L47.5808 24.0302ZM52.1366 35.4324L50.3171 30.3424L52.2259 30.6011L54.0939 35.6091L54.0807 35.7034L52.1366 35.4324ZM58.8827 25.6057L57.4103 36.1676L55.5896 35.9138L57.0619 25.3518L58.8827 25.6057ZM69.5244 27.0891L68.0521 37.651L66.2313 37.3972L62.5491 29.1709L61.4944 36.7369L59.6736 36.4831L61.1459 25.9211L62.9667 26.175L66.6614 34.4178L67.7181 26.8373L69.5244 27.0891ZM79.0834 33.6869L78.5212 37.7201C78.3437 37.8975 78.0788 38.0824 77.7266 38.2749C77.3799 38.4632 76.9336 38.6056 76.3877 38.7021C75.8418 38.7985 75.1795 38.7925 74.4009 38.6839C73.7384 38.5916 73.147 38.3958 72.6267 38.0964C72.107 37.7923 71.6769 37.3946 71.3362 36.9034C71.0003 36.4129 70.767 35.8405 70.6363 35.1864C70.5064 34.5273 70.4973 33.7964 70.6092 32.9937L70.7114 32.261C70.8226 31.463 71.0208 30.766 71.3061 30.1697C71.5968 29.5694 71.9611 29.0779 72.399 28.6952C72.8369 28.3125 73.3373 28.0471 73.9003 27.8987C74.4688 27.7463 75.0916 27.7172 75.7686 27.8116C76.6343 27.9323 77.3298 28.1771 77.8551 28.5462C78.386 28.9111 78.7708 29.369 79.0095 29.9199C79.2483 30.4708 79.3632 31.0784 79.3544 31.7428L77.5699 31.494C77.5631 31.1184 77.4953 30.7737 77.3665 30.4599C77.2425 30.1469 77.0373 29.8865 76.7507 29.679C76.4696 29.4672 76.0848 29.3273 75.5964 29.2592C75.1757 29.2006 74.7946 29.2288 74.4532 29.3439C74.1117 29.459 73.813 29.6565 73.5571 29.9363C73.306 30.2168 73.0963 30.5721 72.9279 31.0022C72.7594 31.4323 72.6355 31.9327 72.5559 32.5033L72.4518 33.2505C72.3709 33.8308 72.3595 34.3543 72.4177 34.8209C72.4808 35.2882 72.6068 35.6927 72.7958 36.0346C72.9896 36.3772 73.2446 36.6518 73.5609 36.8586C73.8779 37.0605 74.2491 37.1912 74.6747 37.2505C75.0906 37.3085 75.4363 37.3221 75.7117 37.2915C75.9878 37.2561 76.2099 37.2007 76.3782 37.1256C76.5519 37.0463 76.6887 36.9668 76.7886 36.887L77.0808 34.7906L74.8828 34.4842L75.0719 33.1277L79.0834 33.6869ZM91.0458 39.4365L90.8516 40.8292L83.7717 39.8423L83.9385 38.6454L87.8997 35.3743C88.3363 35.0013 88.6849 34.6753 88.9457 34.3961C89.2065 34.1169 89.3976 33.8601 89.519 33.6256C89.6459 33.3869 89.7259 33.1491 89.7589 32.9121C89.8055 32.5784 89.7834 32.2771 89.6927 32.0081C89.6075 31.7349 89.4566 31.5093 89.2398 31.3312C89.0238 31.1482 88.7465 31.0332 88.4079 30.986C88.0162 30.9314 87.6756 30.9702 87.386 31.1023C87.0964 31.2345 86.863 31.4411 86.6858 31.7221C86.5093 31.9982 86.3944 32.3273 86.3411 32.7093L84.5929 32.4656C84.6785 31.8514 84.897 31.31 85.2482 30.8413C85.6002 30.3678 86.063 30.0182 86.6368 29.7925C87.2112 29.562 87.8732 29.499 88.6228 29.6035C89.3289 29.7019 89.9121 29.904 90.3723 30.2097C90.8325 30.5154 91.1605 30.9038 91.3561 31.3748C91.5566 31.8464 91.6154 32.3796 91.5325 32.9745C91.4866 33.3033 91.3879 33.6223 91.2364 33.9315C91.0848 34.2407 90.8873 34.5435 90.6438 34.8399C90.4059 35.1321 90.1314 35.4217 89.8202 35.7086C89.5097 35.9907 89.172 36.2739 88.807 36.5583L86.1711 38.7569L91.0458 39.4365ZM99.959 35.813L99.7184 37.5395C99.6031 38.3664 99.4225 39.0611 99.1765 39.6233C98.936 40.1814 98.6381 40.6205 98.2829 40.9408C97.9277 41.261 97.5255 41.4761 97.0763 41.586C96.632 41.6966 96.1487 41.7155 95.6264 41.6427C95.2105 41.5848 94.831 41.4776 94.488 41.3213C94.1498 41.1657 93.8538 40.9544 93.6002 40.6873C93.3465 40.4203 93.1431 40.0936 92.9899 39.7075C92.8422 39.3171 92.7477 38.8627 92.7066 38.3443C92.6703 37.8265 92.6984 37.2363 92.7907 36.5738L93.0314 34.8473C93.1474 34.0155 93.3273 33.3257 93.5713 32.778C93.8159 32.2254 94.1155 31.7915 94.4701 31.4761C94.8253 31.1558 95.2248 30.9428 95.6684 30.837C96.1169 30.7319 96.6023 30.7158 97.1246 30.7886C97.5454 30.8473 97.9248 30.9544 98.263 31.11C98.6067 31.2614 98.9033 31.4679 99.1528 31.7295C99.4071 31.9917 99.6085 32.3156 99.7569 32.7011C99.9108 33.0824 100.006 33.532 100.042 34.0498C100.079 34.5627 100.051 35.1505 99.959 35.813ZM97.9358 37.5424L98.2472 35.3082C98.3059 34.8874 98.3333 34.5141 98.3294 34.1882C98.3262 33.8574 98.2917 33.5741 98.226 33.3381C98.1658 33.098 98.0754 32.8981 97.9547 32.7383C97.8347 32.5737 97.6896 32.4474 97.5194 32.3596C97.3499 32.267 97.1539 32.2051 96.9315 32.1741C96.6607 32.1364 96.4114 32.1559 96.1838 32.2326C95.9569 32.3045 95.755 32.444 95.5783 32.651C95.4015 32.8581 95.2485 33.1425 95.1192 33.504C94.9954 33.8615 94.8968 34.3037 94.8233 34.8309L94.5118 37.0651C94.4525 37.4907 94.4245 37.8689 94.4276 38.1996C94.4308 38.5304 94.4646 38.8186 94.529 39.0642C94.594 39.305 94.6838 39.5097 94.7983 39.6785C94.9183 39.8432 95.0631 39.9718 95.2326 40.0645C95.4069 40.1578 95.6029 40.2196 95.8205 40.2499C96.0962 40.2884 96.3478 40.2692 96.5754 40.1925C96.803 40.1158 97.0056 39.9714 97.183 39.7595C97.3611 39.5428 97.5127 39.2509 97.6379 38.8838C97.763 38.5167 97.8623 38.0696 97.9358 37.5424ZM107.933 41.7905L107.739 43.1833L100.659 42.1964L100.826 40.9995L104.787 37.7284C105.224 37.3554 105.572 37.0293 105.833 36.7502C106.094 36.471 106.285 36.2142 106.406 35.9797C106.533 35.741 106.613 35.5032 106.646 35.2662C106.693 34.9325 106.671 34.6312 106.58 34.3622C106.495 34.089 106.344 33.8634 106.127 33.6853C105.911 33.5023 105.634 33.3872 105.295 33.3401C104.904 33.2854 104.563 33.3242 104.273 33.4564C103.984 33.5886 103.751 33.7952 103.573 34.0761C103.397 34.3523 103.282 34.6813 103.229 35.0634L101.48 34.8197C101.566 34.2055 101.784 33.6641 102.136 33.1954C102.488 32.7219 102.951 32.3723 103.524 32.1466C104.099 31.9161 104.761 31.8531 105.51 31.9576C106.216 32.056 106.8 32.2581 107.26 32.5638C107.72 32.8695 108.048 33.2579 108.244 33.7288C108.444 34.2005 108.503 34.7337 108.42 35.3286C108.374 35.6574 108.275 35.9764 108.124 36.2856C107.972 36.5948 107.775 36.8976 107.531 37.194C107.293 37.4862 107.019 37.7757 106.708 38.0627C106.397 38.3448 106.059 38.628 105.694 38.9124L103.059 41.111L107.933 41.7905ZM116.904 40.6228L116.709 42.0156L109.093 40.9538L109.181 39.8939L114.732 33.3909L116.132 33.5861L114.254 35.9717L111.05 39.8068L116.904 40.6228ZM116.531 33.6417L115.058 44.2036L113.31 43.9599L114.783 33.398L116.531 33.6417Z" fill="black"/>
<path d="M216.561 58.0699C216.591 57.8523 216.584 57.6541 216.54 57.4754C216.501 57.2974 216.409 57.1268 216.264 56.9636C216.119 56.8005 215.906 56.6327 215.624 56.4603C215.348 56.2838 214.99 56.0934 214.55 55.8891C214.069 55.6642 213.629 55.4278 213.229 55.1799C212.836 54.9278 212.499 54.6541 212.22 54.3588C211.941 54.0587 211.738 53.7321 211.609 53.3789C211.482 53.021 211.448 52.6244 211.509 52.1891C211.569 51.7587 211.713 51.3795 211.941 51.0514C212.174 50.724 212.475 50.4554 212.845 50.2456C213.22 50.0316 213.647 49.8865 214.126 49.8103C214.605 49.7293 215.123 49.7275 215.679 49.8051C216.463 49.9143 217.117 50.1534 217.643 50.5224C218.173 50.8922 218.556 51.3425 218.793 51.8734C219.034 52.405 219.114 52.9658 219.032 53.5557L217.225 53.304C217.274 52.9558 217.242 52.6382 217.129 52.3513C217.021 52.0603 216.829 51.8165 216.55 51.62C216.277 51.4241 215.913 51.2945 215.458 51.2311C215.028 51.1711 214.661 51.1865 214.358 51.2773C214.054 51.3681 213.817 51.5149 213.645 51.7179C213.474 51.9208 213.369 52.1625 213.33 52.443C213.302 52.6412 213.323 52.829 213.392 53.0062C213.461 53.1786 213.581 53.3481 213.75 53.5146C213.92 53.6763 214.139 53.8375 214.407 53.9982C214.676 54.1589 214.996 54.3218 215.367 54.4869C215.928 54.7426 216.411 55.0072 216.817 55.2806C217.223 55.5493 217.553 55.8368 217.806 56.1432C218.059 56.4496 218.234 56.7822 218.332 57.141C218.431 57.4949 218.45 57.8846 218.391 58.3102C218.329 58.7551 218.184 59.144 217.955 59.477C217.727 59.8051 217.428 60.0716 217.059 60.2765C216.696 60.4773 216.273 60.6131 215.79 60.6838C215.312 60.7503 214.79 60.7441 214.225 60.6653C213.717 60.5945 213.226 60.457 212.751 60.2528C212.282 60.0493 211.866 59.7818 211.503 59.4502C211.14 59.1137 210.87 58.721 210.691 58.2721C210.512 57.8183 210.462 57.311 210.54 56.75L212.361 57.0038C212.313 57.3471 212.331 57.6478 212.413 57.9058C212.5 58.1645 212.639 58.386 212.831 58.5704C213.022 58.75 213.254 58.8956 213.524 59.0072C213.799 59.1196 214.099 59.1983 214.423 59.2435C214.848 59.3028 215.212 59.2919 215.514 59.2108C215.821 59.1303 216.063 58.9914 216.238 58.794C216.414 58.5966 216.521 58.3552 216.561 58.0699ZM224.181 57.8897L221.431 57.5065L221.633 56.0629L224.382 56.4461C224.861 56.5129 225.258 56.4894 225.575 56.3758C225.892 56.2622 226.136 56.0794 226.31 55.8274C226.488 55.5713 226.602 55.2668 226.651 54.9137C226.698 54.5801 226.671 54.2584 226.571 53.9486C226.477 53.6348 226.295 53.3678 226.025 53.1477C225.755 52.9277 225.38 52.7843 224.902 52.7176L222.711 52.4122L221.441 61.5233L219.62 61.2695L221.092 50.7075L225.104 51.2667C225.921 51.3807 226.595 51.6225 227.125 51.9922C227.661 52.3577 228.043 52.8153 228.272 53.3649C228.502 53.9096 228.572 54.506 228.481 55.1541C228.386 55.8359 228.155 56.4002 227.787 56.8469C227.419 57.2935 226.929 57.6073 226.317 57.7882C225.71 57.9698 224.998 58.0036 224.181 57.8897ZM230.581 52.0302L234.317 52.551C235.119 52.6629 235.787 52.8792 236.319 53.1998C236.851 53.5205 237.234 53.9387 237.468 54.4544C237.707 54.966 237.779 55.5676 237.682 56.2591C237.609 56.7863 237.447 57.237 237.198 57.6115C236.948 57.9859 236.628 58.2863 236.237 58.5128C235.846 58.7344 235.396 58.8861 234.886 58.9679L234.298 59.1595L230.939 58.6913L231.126 57.2457L233.643 57.5966C234.078 57.6573 234.452 57.6305 234.763 57.5161C235.075 57.4018 235.322 57.2218 235.504 56.976C235.692 56.7261 235.809 56.4319 235.856 56.0934C235.908 55.7258 235.88 55.3966 235.772 55.1055C235.671 54.8103 235.482 54.5696 235.207 54.3834C234.933 54.1924 234.569 54.0652 234.114 54.0018L232.199 53.7348L230.929 62.8459L229.108 62.5921L230.581 52.0302ZM235.137 63.4324L233.317 58.3424L235.226 58.6011L237.094 63.6091L237.081 63.7034L235.137 63.4324ZM241.883 53.6057L240.41 64.1676L238.59 63.9138L240.062 53.3518L241.883 53.6057ZM252.524 55.0891L251.052 65.651L249.231 65.3972L245.549 57.1709L244.494 64.7369L242.674 64.4831L244.146 53.9211L245.967 54.175L249.661 62.4178L250.718 54.8373L252.524 55.0891ZM262.083 61.6869L261.521 65.7201C261.344 65.8975 261.079 66.0824 260.727 66.2749C260.38 66.4632 259.934 66.6056 259.388 66.7021C258.842 66.7985 258.18 66.7925 257.401 66.6839C256.738 66.5916 256.147 66.3958 255.627 66.0964C255.107 65.7923 254.677 65.3946 254.336 64.9034C254 64.4129 253.767 63.8405 253.636 63.1864C253.506 62.5273 253.497 61.7964 253.609 60.9937L253.711 60.261C253.823 59.463 254.021 58.766 254.306 58.1697C254.597 57.5694 254.961 57.0779 255.399 56.6952C255.837 56.3125 256.337 56.0471 256.9 55.8987C257.469 55.7463 258.092 55.7172 258.769 55.8116C259.634 55.9323 260.33 56.1771 260.855 56.5462C261.386 56.9111 261.771 57.369 262.01 57.9199C262.248 58.4708 262.363 59.0784 262.354 59.7428L260.57 59.494C260.563 59.1184 260.495 58.7737 260.367 58.4599C260.243 58.1469 260.037 57.8865 259.751 57.679C259.47 57.4672 259.085 57.3273 258.596 57.2592C258.176 57.2006 257.795 57.2288 257.453 57.3439C257.112 57.459 256.813 57.6565 256.557 57.9363C256.306 58.2168 256.096 58.5721 255.928 59.0022C255.759 59.4323 255.635 59.9327 255.556 60.5033L255.452 61.2505C255.371 61.8308 255.36 62.3543 255.418 62.8209C255.481 63.2882 255.607 63.6927 255.796 64.0346C255.99 64.3772 256.245 64.6518 256.561 64.8586C256.878 65.0605 257.249 65.1912 257.675 65.2505C258.091 65.3085 258.436 65.3221 258.712 65.2915C258.988 65.2561 259.21 65.2007 259.378 65.1256C259.552 65.0463 259.689 64.9668 259.789 64.887L260.081 62.7906L257.883 62.4842L258.072 61.1277L262.083 61.6869ZM274.046 67.4365L273.852 68.8292L266.772 67.8423L266.939 66.6454L270.9 63.3743C271.336 63.0013 271.685 62.6753 271.946 62.3961C272.206 62.1169 272.398 61.8601 272.519 61.6256C272.646 61.3869 272.726 61.1491 272.759 60.9121C272.805 60.5784 272.783 60.2771 272.693 60.0081C272.608 59.7349 272.457 59.5093 272.24 59.3312C272.024 59.1482 271.746 59.0332 271.408 58.986C271.016 58.9314 270.676 58.9702 270.386 59.1023C270.096 59.2345 269.863 59.4411 269.686 59.7221C269.509 59.9982 269.394 60.3273 269.341 60.7093L267.593 60.4656C267.679 59.8514 267.897 59.31 268.248 58.8413C268.6 58.3678 269.063 58.0182 269.637 57.7925C270.211 57.562 270.873 57.499 271.623 57.6035C272.329 57.7019 272.912 57.904 273.372 58.2097C273.833 58.5154 274.16 58.9038 274.356 59.3748C274.557 59.8464 274.615 60.3796 274.532 60.9745C274.487 61.3033 274.388 61.6223 274.236 61.9315C274.085 62.2407 273.887 62.5435 273.644 62.8399C273.406 63.1321 273.131 63.4217 272.82 63.7086C272.51 63.9907 272.172 64.2739 271.807 64.5583L269.171 66.7569L274.046 67.4365ZM282.959 63.813L282.718 65.5395C282.603 66.3664 282.422 67.0611 282.176 67.6233C281.936 68.1814 281.638 68.6205 281.283 68.9408C280.928 69.261 280.525 69.4761 280.076 69.586C279.632 69.6966 279.149 69.7155 278.626 69.6427C278.21 69.5848 277.831 69.4776 277.488 69.3213C277.15 69.1657 276.854 68.9544 276.6 68.6873C276.347 68.4203 276.143 68.0936 275.99 67.7075C275.842 67.3171 275.748 66.8627 275.707 66.3443C275.67 65.8265 275.698 65.2363 275.791 64.5738L276.031 62.8473C276.147 62.0155 276.327 61.3257 276.571 60.778C276.816 60.2254 277.116 59.7915 277.47 59.4761C277.825 59.1558 278.225 58.9428 278.668 58.837C279.117 58.7319 279.602 58.7158 280.125 58.7886C280.545 58.8473 280.925 58.9544 281.263 59.11C281.607 59.2614 281.903 59.4679 282.153 59.7295C282.407 59.9917 282.608 60.3156 282.757 60.7011C282.911 61.0824 283.006 61.532 283.042 62.0498C283.079 62.5627 283.051 63.1505 282.959 63.813ZM280.936 65.5424L281.247 63.3082C281.306 62.8874 281.333 62.5141 281.329 62.1882C281.326 61.8574 281.292 61.5741 281.226 61.3381C281.166 61.098 281.075 60.8981 280.955 60.7383C280.835 60.5737 280.69 60.4474 280.519 60.3596C280.35 60.267 280.154 60.2051 279.931 60.1741C279.661 60.1364 279.411 60.1559 279.184 60.2326C278.957 60.3045 278.755 60.444 278.578 60.651C278.401 60.8581 278.248 61.1425 278.119 61.504C277.995 61.8615 277.897 62.3037 277.823 62.8309L277.512 65.0651C277.453 65.4907 277.424 65.8689 277.428 66.1996C277.431 66.5304 277.465 66.8186 277.529 67.0642C277.594 67.305 277.684 67.5097 277.798 67.6785C277.918 67.8432 278.063 67.9718 278.233 68.0645C278.407 68.1578 278.603 68.2196 278.821 68.2499C279.096 68.2884 279.348 68.2692 279.575 68.1925C279.803 68.1158 280.006 67.9714 280.183 67.7595C280.361 67.5428 280.513 67.2509 280.638 66.8838C280.763 66.5167 280.862 66.0696 280.936 65.5424ZM290.933 69.7905L290.739 71.1833L283.659 70.1964L283.826 68.9995L287.787 65.7284C288.224 65.3554 288.572 65.0293 288.833 64.7502C289.094 64.471 289.285 64.2142 289.406 63.9797C289.533 63.741 289.613 63.5032 289.646 63.2662C289.693 62.9325 289.671 62.6312 289.58 62.3622C289.495 62.089 289.344 61.8634 289.127 61.6853C288.911 61.5023 288.634 61.3872 288.295 61.3401C287.904 61.2854 287.563 61.3242 287.273 61.4564C286.984 61.5886 286.751 61.7952 286.573 62.0761C286.397 62.3523 286.282 62.6813 286.229 63.0634L284.48 62.8197C284.566 62.2055 284.784 61.6641 285.136 61.1954C285.488 60.7219 285.951 60.3723 286.524 60.1466C287.099 59.9161 287.761 59.8531 288.51 59.9576C289.216 60.056 289.8 60.2581 290.26 60.5638C290.72 60.8695 291.048 61.2579 291.244 61.7288C291.444 62.2005 291.503 62.7337 291.42 63.3286C291.374 63.6574 291.275 63.9764 291.124 64.2856C290.972 64.5948 290.775 64.8976 290.531 65.194C290.293 65.4862 290.019 65.7757 289.708 66.0627C289.397 66.3448 289.059 66.628 288.694 66.9124L286.059 69.111L290.933 69.7905ZM299.904 68.6228L299.709 70.0156L292.093 68.9538L292.181 67.8939L297.732 61.3909L299.132 61.5861L297.254 63.9717L294.05 67.8068L299.904 68.6228ZM299.531 61.6417L298.058 72.2036L296.31 71.9599L297.783 61.398L299.531 61.6417Z" fill="black"/>
<path d="M401.561 87.0699C401.591 86.8523 401.584 86.6541 401.54 86.4754C401.501 86.2974 401.409 86.1268 401.264 85.9636C401.119 85.8005 400.906 85.6327 400.624 85.4603C400.348 85.2838 399.99 85.0934 399.55 84.8891C399.069 84.6642 398.629 84.4278 398.229 84.1799C397.836 83.9278 397.499 83.6541 397.22 83.3588C396.941 83.0587 396.738 82.7321 396.609 82.3789C396.482 82.021 396.448 81.6244 396.509 81.1891C396.569 80.7587 396.713 80.3795 396.941 80.0514C397.174 79.724 397.475 79.4554 397.845 79.2456C398.22 79.0316 398.647 78.8865 399.126 78.8103C399.605 78.7293 400.123 78.7275 400.679 78.8051C401.463 78.9143 402.117 79.1534 402.643 79.5224C403.173 79.8922 403.556 80.3425 403.793 80.8734C404.034 81.405 404.114 81.9658 404.032 82.5557L402.225 82.304C402.274 81.9558 402.242 81.6382 402.129 81.3513C402.021 81.0603 401.829 80.8165 401.55 80.62C401.277 80.4241 400.913 80.2945 400.458 80.2311C400.028 80.1711 399.661 80.1865 399.358 80.2773C399.054 80.3681 398.817 80.5149 398.645 80.7179C398.474 80.9208 398.369 81.1625 398.33 81.443C398.302 81.6412 398.323 81.829 398.392 82.0062C398.461 82.1786 398.581 82.3481 398.75 82.5146C398.92 82.6763 399.139 82.8375 399.407 82.9982C399.676 83.1589 399.996 83.3218 400.367 83.4869C400.928 83.7426 401.411 84.0072 401.817 84.2806C402.223 84.5493 402.553 84.8368 402.806 85.1432C403.059 85.4496 403.234 85.7822 403.332 86.141C403.431 86.4949 403.45 86.8846 403.391 87.3102C403.329 87.7551 403.184 88.144 402.955 88.477C402.727 88.8051 402.428 89.0716 402.059 89.2765C401.696 89.4773 401.273 89.6131 400.79 89.6838C400.312 89.7503 399.79 89.7441 399.225 89.6653C398.717 89.5945 398.226 89.457 397.751 89.2528C397.282 89.0493 396.866 88.7818 396.503 88.4502C396.14 88.1137 395.87 87.721 395.691 87.2721C395.512 86.8183 395.462 86.311 395.54 85.75L397.361 86.0038C397.313 86.3471 397.331 86.6478 397.413 86.9058C397.5 87.1645 397.639 87.386 397.831 87.5704C398.022 87.75 398.254 87.8956 398.524 88.0072C398.799 88.1196 399.099 88.1983 399.423 88.2435C399.848 88.3028 400.212 88.2919 400.514 88.2108C400.821 88.1303 401.063 87.9914 401.238 87.794C401.414 87.5966 401.521 87.3552 401.561 87.0699ZM409.181 86.8897L406.431 86.5065L406.633 85.0629L409.382 85.4461C409.861 85.5129 410.258 85.4894 410.575 85.3758C410.892 85.2622 411.136 85.0794 411.31 84.8274C411.488 84.5713 411.602 84.2668 411.651 83.9137C411.698 83.5801 411.671 83.2584 411.571 82.9486C411.477 82.6348 411.295 82.3678 411.025 82.1477C410.755 81.9277 410.38 81.7843 409.902 81.7176L407.711 81.4122L406.441 90.5233L404.62 90.2695L406.092 79.7075L410.104 80.2667C410.921 80.3807 411.595 80.6225 412.125 80.9922C412.661 81.3577 413.043 81.8153 413.272 82.3649C413.502 82.9096 413.572 83.506 413.481 84.1541C413.386 84.8359 413.155 85.4002 412.787 85.8469C412.419 86.2935 411.929 86.6073 411.317 86.7882C410.71 86.9698 409.998 87.0036 409.181 86.8897ZM415.581 81.0302L419.317 81.551C420.119 81.6629 420.787 81.8792 421.319 82.1998C421.851 82.5205 422.234 82.9387 422.468 83.4544C422.707 83.966 422.779 84.5676 422.682 85.2591C422.609 85.7863 422.447 86.237 422.198 86.6115C421.948 86.9859 421.628 87.2863 421.237 87.5128C420.846 87.7344 420.396 87.8861 419.886 87.9679L419.298 88.1595L415.939 87.6913L416.126 86.2457L418.643 86.5966C419.078 86.6573 419.452 86.6305 419.763 86.5161C420.075 86.4018 420.322 86.2218 420.504 85.976C420.692 85.7261 420.809 85.4319 420.856 85.0934C420.908 84.7258 420.88 84.3966 420.772 84.1055C420.671 83.8103 420.482 83.5696 420.207 83.3834C419.933 83.1924 419.569 83.0652 419.114 83.0018L417.199 82.7348L415.929 91.8459L414.108 91.5921L415.581 81.0302ZM420.137 92.4324L418.317 87.3424L420.226 87.6011L422.094 92.6091L422.081 92.7034L420.137 92.4324ZM426.883 82.6057L425.41 93.1676L423.59 92.9138L425.062 82.3518L426.883 82.6057ZM437.524 84.0891L436.052 94.651L434.231 94.3972L430.549 86.1709L429.494 93.7369L427.674 93.4831L429.146 82.9211L430.967 83.175L434.661 91.4178L435.718 83.8373L437.524 84.0891ZM447.083 90.6869L446.521 94.7201C446.344 94.8975 446.079 95.0824 445.727 95.2749C445.38 95.4632 444.934 95.6056 444.388 95.7021C443.842 95.7985 443.18 95.7925 442.401 95.6839C441.738 95.5916 441.147 95.3958 440.627 95.0964C440.107 94.7923 439.677 94.3946 439.336 93.9034C439 93.4129 438.767 92.8405 438.636 92.1864C438.506 91.5273 438.497 90.7964 438.609 89.9937L438.711 89.261C438.823 88.463 439.021 87.766 439.306 87.1697C439.597 86.5694 439.961 86.0779 440.399 85.6952C440.837 85.3125 441.337 85.0471 441.9 84.8987C442.469 84.7463 443.092 84.7172 443.769 84.8116C444.634 84.9323 445.33 85.1771 445.855 85.5462C446.386 85.9111 446.771 86.369 447.01 86.9199C447.248 87.4708 447.363 88.0784 447.354 88.7428L445.57 88.494C445.563 88.1184 445.495 87.7737 445.367 87.4599C445.243 87.1469 445.037 86.8865 444.751 86.679C444.47 86.4672 444.085 86.3273 443.596 86.2592C443.176 86.2006 442.795 86.2288 442.453 86.3439C442.112 86.459 441.813 86.6565 441.557 86.9363C441.306 87.2168 441.096 87.5721 440.928 88.0022C440.759 88.4323 440.635 88.9327 440.556 89.5033L440.452 90.2505C440.371 90.8308 440.36 91.3543 440.418 91.8209C440.481 92.2882 440.607 92.6927 440.796 93.0346C440.99 93.3772 441.245 93.6518 441.561 93.8586C441.878 94.0605 442.249 94.1912 442.675 94.2505C443.091 94.3085 443.436 94.3221 443.712 94.2915C443.988 94.2561 444.21 94.2007 444.378 94.1256C444.552 94.0463 444.689 93.9668 444.789 93.887L445.081 91.7906L442.883 91.4842L443.072 90.1277L447.083 90.6869ZM459.046 96.4365L458.852 97.8292L451.772 96.8423L451.939 95.6454L455.9 92.3743C456.336 92.0013 456.685 91.6753 456.946 91.3961C457.206 91.1169 457.398 90.8601 457.519 90.6256C457.646 90.3869 457.726 90.1491 457.759 89.9121C457.805 89.5784 457.783 89.2771 457.693 89.0081C457.608 88.7349 457.457 88.5093 457.24 88.3312C457.024 88.1482 456.746 88.0332 456.408 87.986C456.016 87.9314 455.676 87.9702 455.386 88.1023C455.096 88.2345 454.863 88.4411 454.686 88.7221C454.509 88.9982 454.394 89.3273 454.341 89.7093L452.593 89.4656C452.679 88.8514 452.897 88.31 453.248 87.8413C453.6 87.3678 454.063 87.0182 454.637 86.7925C455.211 86.562 455.873 86.499 456.623 86.6035C457.329 86.7019 457.912 86.904 458.372 87.2097C458.833 87.5154 459.16 87.9038 459.356 88.3748C459.557 88.8464 459.615 89.3796 459.532 89.9745C459.487 90.3033 459.388 90.6223 459.236 90.9315C459.085 91.2407 458.887 91.5435 458.644 91.8399C458.406 92.1321 458.131 92.4217 457.82 92.7086C457.51 92.9907 457.172 93.2739 456.807 93.5583L454.171 95.7569L459.046 96.4365ZM467.959 92.813L467.718 94.5395C467.603 95.3664 467.422 96.0611 467.176 96.6233C466.936 97.1814 466.638 97.6205 466.283 97.9408C465.928 98.261 465.525 98.4761 465.076 98.586C464.632 98.6966 464.149 98.7155 463.626 98.6427C463.21 98.5848 462.831 98.4776 462.488 98.3213C462.15 98.1657 461.854 97.9544 461.6 97.6873C461.347 97.4203 461.143 97.0936 460.99 96.7075C460.842 96.3171 460.748 95.8627 460.707 95.3443C460.67 94.8265 460.698 94.2363 460.791 93.5738L461.031 91.8473C461.147 91.0155 461.327 90.3257 461.571 89.778C461.816 89.2254 462.116 88.7915 462.47 88.4761C462.825 88.1558 463.225 87.9428 463.668 87.837C464.117 87.7319 464.602 87.7158 465.125 87.7886C465.545 87.8473 465.925 87.9544 466.263 88.11C466.607 88.2614 466.903 88.4679 467.153 88.7295C467.407 88.9917 467.608 89.3156 467.757 89.7011C467.911 90.0824 468.006 90.532 468.042 91.0498C468.079 91.5627 468.051 92.1505 467.959 92.813ZM465.936 94.5424L466.247 92.3082C466.306 91.8874 466.333 91.5141 466.329 91.1882C466.326 90.8574 466.292 90.5741 466.226 90.3381C466.166 90.098 466.075 89.8981 465.955 89.7383C465.835 89.5737 465.69 89.4474 465.519 89.3596C465.35 89.267 465.154 89.2051 464.931 89.1741C464.661 89.1364 464.411 89.1559 464.184 89.2326C463.957 89.3045 463.755 89.444 463.578 89.651C463.401 89.8581 463.248 90.1425 463.119 90.504C462.995 90.8615 462.897 91.3037 462.823 91.8309L462.512 94.0651C462.453 94.4907 462.424 94.8689 462.428 95.1996C462.431 95.5304 462.465 95.8186 462.529 96.0642C462.594 96.305 462.684 96.5097 462.798 96.6785C462.918 96.8432 463.063 96.9718 463.233 97.0645C463.407 97.1578 463.603 97.2196 463.821 97.2499C464.096 97.2884 464.348 97.2692 464.575 97.1925C464.803 97.1158 465.006 96.9714 465.183 96.7595C465.361 96.5428 465.513 96.2509 465.638 95.8838C465.763 95.5167 465.862 95.0696 465.936 94.5424ZM475.933 98.7905L475.739 100.183L468.659 99.1964L468.826 97.9995L472.787 94.7284C473.224 94.3554 473.572 94.0293 473.833 93.7502C474.094 93.471 474.285 93.2142 474.406 92.9797C474.533 92.741 474.613 92.5032 474.646 92.2662C474.693 91.9325 474.671 91.6312 474.58 91.3622C474.495 91.089 474.344 90.8634 474.127 90.6853C473.911 90.5023 473.634 90.3872 473.295 90.3401C472.904 90.2854 472.563 90.3242 472.273 90.4564C471.984 90.5886 471.751 90.7952 471.573 91.0761C471.397 91.3523 471.282 91.6813 471.229 92.0634L469.48 91.8197C469.566 91.2055 469.784 90.6641 470.136 90.1954C470.488 89.7219 470.951 89.3723 471.524 89.1466C472.099 88.9161 472.761 88.8531 473.51 88.9576C474.216 89.056 474.8 89.2581 475.26 89.5638C475.72 89.8695 476.048 90.2579 476.244 90.7288C476.444 91.2005 476.503 91.7337 476.42 92.3286C476.374 92.6574 476.275 92.9764 476.124 93.2856C475.972 93.5948 475.775 93.8976 475.531 94.194C475.293 94.4862 475.019 94.7757 474.708 95.0627C474.397 95.3448 474.059 95.628 473.694 95.9124L471.059 98.111L475.933 98.7905ZM484.904 97.6228L484.709 99.0156L477.093 97.9538L477.181 96.8939L482.732 90.3909L484.132 90.5861L482.254 92.9717L479.05 96.8068L484.904 97.6228ZM484.531 90.6417L483.058 101.204L481.31 100.96L482.783 90.398L484.531 90.6417Z" fill="black"/>
<path d="M601.561 112.07C601.591 111.852 601.584 111.654 601.54 111.475C601.501 111.297 601.409 111.127 601.264 110.964C601.119 110.8 600.906 110.633 600.624 110.46C600.348 110.284 599.99 110.093 599.55 109.889C599.069 109.664 598.629 109.428 598.229 109.18C597.836 108.928 597.499 108.654 597.22 108.359C596.941 108.059 596.738 107.732 596.609 107.379C596.482 107.021 596.448 106.624 596.509 106.189C596.569 105.759 596.713 105.379 596.941 105.051C597.174 104.724 597.475 104.455 597.845 104.246C598.22 104.032 598.647 103.887 599.126 103.81C599.605 103.729 600.123 103.728 600.679 103.805C601.463 103.914 602.117 104.153 602.643 104.522C603.173 104.892 603.556 105.342 603.793 105.873C604.034 106.405 604.114 106.966 604.032 107.556L602.225 107.304C602.274 106.956 602.242 106.638 602.129 106.351C602.021 106.06 601.829 105.817 601.55 105.62C601.277 105.424 600.913 105.294 600.458 105.231C600.028 105.171 599.661 105.186 599.358 105.277C599.054 105.368 598.817 105.515 598.645 105.718C598.474 105.921 598.369 106.162 598.33 106.443C598.302 106.641 598.323 106.829 598.392 107.006C598.461 107.179 598.581 107.348 598.75 107.515C598.92 107.676 599.139 107.838 599.407 107.998C599.676 108.159 599.996 108.322 600.367 108.487C600.928 108.743 601.411 109.007 601.817 109.281C602.223 109.549 602.553 109.837 602.806 110.143C603.059 110.45 603.234 110.782 603.332 111.141C603.431 111.495 603.45 111.885 603.391 112.31C603.329 112.755 603.184 113.144 602.955 113.477C602.727 113.805 602.428 114.072 602.059 114.277C601.696 114.477 601.273 114.613 600.79 114.684C600.312 114.75 599.79 114.744 599.225 114.665C598.717 114.594 598.226 114.457 597.751 114.253C597.282 114.049 596.866 113.782 596.503 113.45C596.14 113.114 595.87 112.721 595.691 112.272C595.512 111.818 595.462 111.311 595.54 110.75L597.361 111.004C597.313 111.347 597.331 111.648 597.413 111.906C597.5 112.164 597.639 112.386 597.831 112.57C598.022 112.75 598.254 112.896 598.524 113.007C598.799 113.12 599.099 113.198 599.423 113.243C599.848 113.303 600.212 113.292 600.514 113.211C600.821 113.13 601.063 112.991 601.238 112.794C601.414 112.597 601.521 112.355 601.561 112.07ZM609.181 111.89L606.431 111.506L606.633 110.063L609.382 110.446C609.861 110.513 610.258 110.489 610.575 110.376C610.892 110.262 611.136 110.079 611.31 109.827C611.488 109.571 611.602 109.267 611.651 108.914C611.698 108.58 611.671 108.258 611.571 107.949C611.477 107.635 611.295 107.368 611.025 107.148C610.755 106.928 610.38 106.784 609.902 106.718L607.711 106.412L606.441 115.523L604.62 115.269L606.092 104.708L610.104 105.267C610.921 105.381 611.595 105.622 612.125 105.992C612.661 106.358 613.043 106.815 613.272 107.365C613.502 107.91 613.572 108.506 613.481 109.154C613.386 109.836 613.155 110.4 612.787 110.847C612.419 111.293 611.929 111.607 611.317 111.788C610.71 111.97 609.998 112.004 609.181 111.89ZM615.581 106.03L619.317 106.551C620.119 106.663 620.787 106.879 621.319 107.2C621.851 107.521 622.234 107.939 622.468 108.454C622.707 108.966 622.779 109.568 622.682 110.259C622.609 110.786 622.447 111.237 622.198 111.611C621.948 111.986 621.628 112.286 621.237 112.513C620.846 112.734 620.396 112.886 619.886 112.968L619.298 113.159L615.939 112.691L616.126 111.246L618.643 111.597C619.078 111.657 619.452 111.63 619.763 111.516C620.075 111.402 620.322 111.222 620.504 110.976C620.692 110.726 620.809 110.432 620.856 110.093C620.908 109.726 620.88 109.397 620.772 109.106C620.671 108.81 620.482 108.57 620.207 108.383C619.933 108.192 619.569 108.065 619.114 108.002L617.199 107.735L615.929 116.846L614.108 116.592L615.581 106.03ZM620.137 117.432L618.317 112.342L620.226 112.601L622.094 117.609L622.081 117.703L620.137 117.432ZM626.883 107.606L625.41 118.168L623.59 117.914L625.062 107.352L626.883 107.606ZM637.524 109.089L636.052 119.651L634.231 119.397L630.549 111.171L629.494 118.737L627.674 118.483L629.146 107.921L630.967 108.175L634.661 116.418L635.718 108.837L637.524 109.089ZM647.083 115.687L646.521 119.72C646.344 119.898 646.079 120.082 645.727 120.275C645.38 120.463 644.934 120.606 644.388 120.702C643.842 120.799 643.18 120.792 642.401 120.684C641.738 120.592 641.147 120.396 640.627 120.096C640.107 119.792 639.677 119.395 639.336 118.903C639 118.413 638.767 117.841 638.636 117.186C638.506 116.527 638.497 115.796 638.609 114.994L638.711 114.261C638.823 113.463 639.021 112.766 639.306 112.17C639.597 111.569 639.961 111.078 640.399 110.695C640.837 110.313 641.337 110.047 641.9 109.899C642.469 109.746 643.092 109.717 643.769 109.812C644.634 109.932 645.33 110.177 645.855 110.546C646.386 110.911 646.771 111.369 647.01 111.92C647.248 112.471 647.363 113.078 647.354 113.743L645.57 113.494C645.563 113.118 645.495 112.774 645.367 112.46C645.243 112.147 645.037 111.887 644.751 111.679C644.47 111.467 644.085 111.327 643.596 111.259C643.176 111.201 642.795 111.229 642.453 111.344C642.112 111.459 641.813 111.656 641.557 111.936C641.306 112.217 641.096 112.572 640.928 113.002C640.759 113.432 640.635 113.933 640.556 114.503L640.452 115.25C640.371 115.831 640.36 116.354 640.418 116.821C640.481 117.288 640.607 117.693 640.796 118.035C640.99 118.377 641.245 118.652 641.561 118.859C641.878 119.061 642.249 119.191 642.675 119.25C643.091 119.308 643.436 119.322 643.712 119.292C643.988 119.256 644.21 119.201 644.378 119.126C644.552 119.046 644.689 118.967 644.789 118.887L645.081 116.791L642.883 116.484L643.072 115.128L647.083 115.687ZM659.046 121.436L658.852 122.829L651.772 121.842L651.939 120.645L655.9 117.374C656.336 117.001 656.685 116.675 656.946 116.396C657.206 116.117 657.398 115.86 657.519 115.626C657.646 115.387 657.726 115.149 657.759 114.912C657.805 114.578 657.783 114.277 657.693 114.008C657.608 113.735 657.457 113.509 657.24 113.331C657.024 113.148 656.746 113.033 656.408 112.986C656.016 112.931 655.676 112.97 655.386 113.102C655.096 113.235 654.863 113.441 654.686 113.722C654.509 113.998 654.394 114.327 654.341 114.709L652.593 114.466C652.679 113.851 652.897 113.31 653.248 112.841C653.6 112.368 654.063 112.018 654.637 111.793C655.211 111.562 655.873 111.499 656.623 111.603C657.329 111.702 657.912 111.904 658.372 112.21C658.833 112.515 659.16 112.904 659.356 113.375C659.557 113.846 659.615 114.38 659.532 114.974C659.487 115.303 659.388 115.622 659.236 115.932C659.085 116.241 658.887 116.543 658.644 116.84C658.406 117.132 658.131 117.422 657.82 117.709C657.51 117.991 657.172 118.274 656.807 118.558L654.171 120.757L659.046 121.436ZM667.959 117.813L667.718 119.539C667.603 120.366 667.422 121.061 667.176 121.623C666.936 122.181 666.638 122.621 666.283 122.941C665.928 123.261 665.525 123.476 665.076 123.586C664.632 123.697 664.149 123.716 663.626 123.643C663.21 123.585 662.831 123.478 662.488 123.321C662.15 123.166 661.854 122.954 661.6 122.687C661.347 122.42 661.143 122.094 660.99 121.707C660.842 121.317 660.748 120.863 660.707 120.344C660.67 119.826 660.698 119.236 660.791 118.574L661.031 116.847C661.147 116.016 661.327 115.326 661.571 114.778C661.816 114.225 662.116 113.791 662.47 113.476C662.825 113.156 663.225 112.943 663.668 112.837C664.117 112.732 664.602 112.716 665.125 112.789C665.545 112.847 665.925 112.954 666.263 113.11C666.607 113.261 666.903 113.468 667.153 113.729C667.407 113.992 667.608 114.316 667.757 114.701C667.911 115.082 668.006 115.532 668.042 116.05C668.079 116.563 668.051 117.15 667.959 117.813ZM665.936 119.542L666.247 117.308C666.306 116.887 666.333 116.514 666.329 116.188C666.326 115.857 666.292 115.574 666.226 115.338C666.166 115.098 666.075 114.898 665.955 114.738C665.835 114.574 665.69 114.447 665.519 114.36C665.35 114.267 665.154 114.205 664.931 114.174C664.661 114.136 664.411 114.156 664.184 114.233C663.957 114.304 663.755 114.444 663.578 114.651C663.401 114.858 663.248 115.142 663.119 115.504C662.995 115.861 662.897 116.304 662.823 116.831L662.512 119.065C662.453 119.491 662.424 119.869 662.428 120.2C662.431 120.53 662.465 120.819 662.529 121.064C662.594 121.305 662.684 121.51 662.798 121.679C662.918 121.843 663.063 121.972 663.233 122.064C663.407 122.158 663.603 122.22 663.821 122.25C664.096 122.288 664.348 122.269 664.575 122.192C664.803 122.116 665.006 121.971 665.183 121.76C665.361 121.543 665.513 121.251 665.638 120.884C665.763 120.517 665.862 120.07 665.936 119.542ZM675.933 123.791L675.739 125.183L668.659 124.196L668.826 122.999L672.787 119.728C673.224 119.355 673.572 119.029 673.833 118.75C674.094 118.471 674.285 118.214 674.406 117.98C674.533 117.741 674.613 117.503 674.646 117.266C674.693 116.933 674.671 116.631 674.58 116.362C674.495 116.089 674.344 115.863 674.127 115.685C673.911 115.502 673.634 115.387 673.295 115.34C672.904 115.285 672.563 115.324 672.273 115.456C671.984 115.589 671.751 115.795 671.573 116.076C671.397 116.352 671.282 116.681 671.229 117.063L669.48 116.82C669.566 116.206 669.784 115.664 670.136 115.195C670.488 114.722 670.951 114.372 671.524 114.147C672.099 113.916 672.761 113.853 673.51 113.958C674.216 114.056 674.8 114.258 675.26 114.564C675.72 114.87 676.048 115.258 676.244 115.729C676.444 116.2 676.503 116.734 676.42 117.329C676.374 117.657 676.275 117.976 676.124 118.286C675.972 118.595 675.775 118.898 675.531 119.194C675.293 119.486 675.019 119.776 674.708 120.063C674.397 120.345 674.059 120.628 673.694 120.912L671.059 123.111L675.933 123.791ZM684.904 122.623L684.709 124.016L677.093 122.954L677.181 121.894L682.732 115.391L684.132 115.586L682.254 117.972L679.05 121.807L684.904 122.623ZM684.531 115.642L683.058 126.204L681.31 125.96L682.783 115.398L684.531 115.642Z" fill="black"/>
<path d="M166.5 50.5V47.2L164.175 49.5375L163.463 48.825L165.8 46.5H162.5V45.5H165.8L163.463 43.175L164.175 42.4625L166.5 44.8V41.5H167.5V44.8L169.825 42.4625L170.538 43.175L168.2 45.5H171.5V46.5H168.2L170.538 48.825L169.825 49.5375L167.5 47.2V50.5H166.5Z" fill="black"/>
<path d="M355.5 81.5V78.2L353.175 80.5375L352.463 79.825L354.8 77.5H351.5V76.5H354.8L352.463 74.175L353.175 73.4625L355.5 75.8V72.5H356.5V75.8L358.825 73.4625L359.538 74.175L357.2 76.5H360.5V77.5H357.2L359.538 79.825L358.825 80.5375L356.5 78.2V81.5H355.5Z" fill="black"/>
</svg>
